<svg id="Layer_1" data-name="Layer 1" xmlns="http://www.w3.org/2000/svg" xmlns:xlink="http://www.w3.org/1999/xlink" width="1516.59" height="343.53" viewBox="0 0 1516.59 343.53"><defs><style>.cls-1{fill:url(#linear-gradient);}</style><linearGradient id="linear-gradient" x1="417.67" y1="-17.08" x2="1265.45" y2="830.69" gradientUnits="userSpaceOnUse"><stop offset="0" stop-color="#12d3a6"/><stop offset="1" stop-color="#5255b1"/></linearGradient></defs><path class="cls-1" d="M324.6,414.36V535.87c0,9.28-3.23,12.51-12.52,12.51h-21.8c-9.28,0-12.51-3.23-12.51-12.51V415.58c0-25.84-15.34-39.56-44-39.56-19.78,0-37.54,4-41.58,6.05v153.8c0,9.28-2.82,12.51-12.11,12.51h-22.2c-9.28,0-12.51-3.23-12.51-12.51V262.18c0-9.28,3.23-12.51,12.51-12.51h22.2c9.29,0,12.11,3.23,12.11,12.51v76.7c3.64-2,24.63-5.65,48.44-5.65C298.36,333.23,324.6,363.1,324.6,414.36Zm228.46,2.43v24.62c0,10.5-4,17.36-18.16,17.36H413V473.7c0,26.24,16.55,40.37,46,40.37,23.81,0,39.15-8.07,47.63-21.39,6.46-8.89,10.9-10.1,20.59-4.85l14.13,7.67c9.28,4.44,10.49,11.3,4.84,20.19-14.53,23.81-41.58,38.75-87.19,38.75-66.2,0-92.84-36.74-92.84-86.39V420.42c0-56.11,32.69-87.19,93.65-87.19C524,333.23,553.06,370.37,553.06,416.79ZM506.24,414c0-26.24-15.75-41.17-46.42-41.17C429.54,372.79,413,387.72,413,414v8.88h93.25Zm254.3,2.42V520.93c0,14.13-3.23,18.17-14.53,23-14.94,6.46-39.56,10.5-72.66,10.5-71.45,0-90-23.42-90-65.4,0-48.44,27-65,91.63-65,15.74,0,31.89,1.62,38.75,2v-11.3c0-25.43-10.09-40-40.36-40-20.19,0-33.91,6.45-42.39,19.37-5.65,8.48-8.07,9.69-17.36,6.06l-16.14-6.87c-8.88-4-11.71-8.88-6.86-18.16,13.72-26.24,41.57-42,83.55-42C740.35,333.23,760.54,368.75,760.54,416.38Zm-46.83,48c-8.47-.4-28.25-2-44-2C639,462.4,631,472.09,631,488.64s6.46,27.05,37.95,27.05c20.58,0,33.1-1.62,40.36-3.23,3.23-1.22,4.44-2,4.44-5.66ZM843.28,249.67H821.49c-9.69,0-12.52,3.23-12.52,12.51V535.87c0,9.28,2.83,12.51,12.52,12.51h21.79c9.29,0,12.52-3.23,12.52-12.51V262.18C855.8,252.9,852.57,249.67,843.28,249.67Zm177.61,89.61h-46V303c0-9.28-3.23-12.11-12.51-12.11h-21.8c-9.28,0-12.51,2.83-12.51,12.11v36.33H900.2c-9.29,0-12.11,2.83-12.11,12.11V370c0,9.29,2.82,12.52,12.11,12.52h27.85v82.75c0,69.83,25.83,90.82,92.44,88.8,9.69-.4,12.92-3.23,12.92-12.91V522.55c0-9.69-3.23-12.52-12.92-12.52-33.91,0-45.62-6.86-45.62-46.42V382.48h46c9.29,0,12.52-3.23,12.52-12.52V351.39C1033.41,342.11,1030.18,339.28,1020.89,339.28Zm82.75-89.61h-22.2c-9.29,0-12.52,3.23-12.52,12.51V535.87c0,9.28,3.23,12.51,12.52,12.51h22.2c9.28,0,12.11-3.23,12.11-12.51V262.18C1115.75,252.9,1112.92,249.67,1103.64,249.67Zm60.55,83.56a245.58,245.58,0,0,0-32.24,2.13v42.71a162.51,162.51,0,0,1,25.37-2.05c28.66,0,44,13.72,44,39.56V535.87c0,9.28,3.23,12.51,12.52,12.51h21.8c9.28,0,12.51-3.23,12.51-12.51V414.36C1248.15,363.1,1221.91,333.23,1164.19,333.23ZM1662,398.85a9.32,9.32,0,0,0-9.32-9.32H1515.08a50.78,50.78,0,0,0-50.77,50.78V577.87a9.31,9.31,0,0,0,9.32,9.31h31.47a9.32,9.32,0,0,0,9.32-9.31V460.65a21,21,0,0,1,21-21h117.21a9.32,9.32,0,0,0,9.32-9.32Zm-147.54-21.54v-126c0-4.25-4-7.69-8.86-7.69h-32.38c-4.89,0-8.86,3.44-8.86,7.69v126Zm-32.21,12c-.8.07-156,.1-156,.1-4.24,0-7.69,4-7.69,8.86v32.38c0,4.89,3.45,8.86,7.69,8.86h118.93a5.75,5.75,0,0,0,5.8-5.43C1455,404.62,1475.68,392.75,1482.21,389.34Z" transform="translate(-145.37 -243.66)"/></svg>